<svg xmlns="http://www.w3.org/2000/svg" data-name="Layer 1" viewBox="0 0 512 512"><polygon fill="#00acea" points="378.94 221.58 378.94 271.61 367.07 271.61 145.43 271.61 133.06 271.61 133.06 221.58 152.35 221.58 360.14 221.58 378.94 221.58"/><polygon fill="#00efd1" points="367.07 271.61 367.07 271.91 362.2 307.99 361.68 307.92 159.39 359.58 145.43 271.91 145.43 271.61 367.07 271.61"/><polygon fill="#00acea" points="362.2 307.99 354.12 367.88 169.19 419.79 168.99 419.82 159.39 359.58 361.68 307.92 362.2 307.99"/><path fill="#fedb41" d="M360.14,221.18v.4H152.35v-.4a103.9,103.9,0,0,1,207.79,0Z"/><polygon fill="#00efd1" points="354.12 367.88 339.31 477.62 178.27 478.1 168.99 419.82 169.19 419.79 354.12 367.88"/><path fill="#083863" d="M133.06,280h5.5L170.37,479.5a7.788,7.788,0,0,0,7.9,6.5h.024l161.04-.43a7.809,7.809,0,0,0,7.9-6.71L374.1,280h4.836a8.394,8.394,0,0,0,8.06-8.39V221.58c0-4.418-3.642-7.58-8.06-7.58H367.859a111.417,111.417,0,0,0-32.491-71.408,113.965,113.965,0,0,0-15.435-13.013l24.682-93.586a8,8,0,1,0-15.47-4.121l-23.533,89.365A110.576,110.576,0,0,0,256.6,110h-.361a111.919,111.919,0,0,0-111.6,104H133.06c-4.418,0-8.06,3.162-8.06,7.58v50.03A8.394,8.394,0,0,0,133.06,280ZM346.9,361.6,175.479,409.715l-7.038-44.192,184.274-47.057ZM332.314,469.641l-147.22.439-7.081-44.458,166.55-46.751Zm22.708-168.083L165.914,349.95,154.757,280h203.2ZM188.649,153.89A95.271,95.271,0,0,1,256.236,126h.308c49.98,0,91.215,39,95.267,88H160.675A94.588,94.588,0,0,1,188.649,153.89ZM141,230H371v34H141Z"/></svg>