<svg xmlns="http://www.w3.org/2000/svg" viewBox="0 0 64 64"><g data-name="Layer 2"><rect width="4" height="20.38" x="13.65" y="10.06" fill="#ffd54f"/><rect width="4" height="18" x="22.44" y="14.65" fill="#ffd54f" transform="rotate(11.8 24.448 23.635)"/><rect width="4" height="18" x="39.01" y="16.04" fill="#ffa000" transform="rotate(-4.94 40.96 24.992)"/><rect width="4" height="24.17" x="45.81" y="8.16" fill="#ffd740"/><rect width="4" height="18" x="30.31" y="18.89" fill="#ffc107" transform="translate(1.03 -1.15)"/><path fill="#ff5722" d="M38.22,28.84a5.47,5.47,0,0,1,.09,1,6,6,0,1,1-12,0,5.47,5.47,0,0,1,.09-1H11.31l8,27h26l8-27Z"/><path fill="#b71c1c" d="M53.8,28.25a1,1,0,0,0-.8-.41H50.5V8.16a1,1,0,0,0-1-1h-4a1,1,0,0,0-1,1V27.84H44l-1-12a1,1,0,0,0-.36-.68,1,1,0,0,0-.73-.23l-4,.34a1,1,0,0,0-.91,1.09l1,11.5h0a1,1,0,0,0-.77.36,1,1,0,0,0-.21.83,4.29,4.29,0,0,1,.07.81A5,5,0,0,1,34.78,34l.55-15a1,1,0,0,0-1-1l-4-.14a1,1,0,0,0-1,1l-.54,14.88A5,5,0,0,1,27,29.84a4.28,4.28,0,0,1,.08-.81,1,1,0,0,0-.22-.83,1.08,1.08,0,0,0-.55-.33L28.9,15.46a1,1,0,0,0-.77-1.19l-3.92-.81a1,1,0,0,0-.75.14,1,1,0,0,0-.43.63L20.19,27.84H18.34V10.06a1,1,0,0,0-1-1h-4a1,1,0,0,0-1,1V27.84H11a1,1,0,0,0-1,1.29l5.14,17.34.59,2L18,56.13a1,1,0,0,0,1,.71H45a1,1,0,0,0,1-.71l2.27-7.66.59-2L54,29.13A1,1,0,0,0,53.8,28.25ZM46.5,9.16h2V27.84h-2Zm-7.48,8L41,17,42,27.84h-2Zm-7.73,2.7,2,.08-.54,14.84a4.55,4.55,0,0,1-.75.06,5.16,5.16,0,0,1-1.25-.16Zm-6.51-4.24,2,.41L24.27,27.84h-2ZM14.34,11.06h2V27.84h-2ZM44.26,54.84H19.75l-1.89-6.37H46.15Zm2.48-8.37H17.27L12.75,31.24l-.41-1.4H25a6.68,6.68,0,0,0,.41,2.33A7,7,0,0,0,32,36.84a6.92,6.92,0,0,0,2.7-.54,7,7,0,0,0,3.66-3.55A6.92,6.92,0,0,0,39,29.84H51.66Z"/></g></svg>