<svg xmlns="http://www.w3.org/2000/svg" width="300mm" height="300mm" viewBox="0 0 300 300"><g transform="translate(0 3)"><path fill="#ffc466" fill-rule="evenodd" d="M 154.36247,286.99126 213.5153,142.92689 h 0.0787 V 112.80716 H 91.271347 v 30.11973 0 l 59.231493,144.22373 c 1.26026,2.31078 2.75688,2.2311 3.85954,-0.15952 z"/><path fill="#eba338" fill-rule="evenodd" d="M 153.33847,284.83985 212.4913,140.77547 h 0.0787 v -30.11972 h -36.46848 v 1.67333 h -0.15751 l -48.67687,118.64596 22.21191,54.10385 c 1.26017,2.23109 2.75679,2.15142 3.85936,-0.23929 z"/><path fill="none" stroke="#1a1a1a" stroke-linecap="round" stroke-linejoin="round" stroke-width="9" d="m 187.12892,210.25785 26.38638,-64.2234 h 0.0787 V 115.91472 H 91.271347 v 30.11973 0 l 59.231493,144.30342 c 1.26026,2.23109 2.75688,2.23109 3.85954,-0.15952 l 20.63663,-50.27909"/><path fill="#eba338" fill-rule="evenodd" stroke="#1a1a1a" stroke-linecap="round" stroke-linejoin="round" stroke-width="9" d="M 94.815867,122.52832 H 211.62491 c 4.88344,0 8.90049,4.06379 8.90049,9.00406 v 0 c 0,4.86058 -4.01705,8.92438 -8.90049,8.92438 H 94.815867 c -4.883447,0 -8.821742,-4.0638 -8.821742,-8.92438 v 0 c 0,-4.94027 3.938295,-9.00406 8.821742,-9.00406 z"/><path fill="#fac" fill-rule="evenodd" d="m 83.631202,95.038164 h 1.732792 C 83.631202,88.90265 82.68596,82.448481 82.68596,75.834879 c 0,-38.565948 30.87596,-69.8807904 68.99857,-69.8807904 38.12242,0 69.07723,31.3148424 69.07723,69.8807904 0,6.613602 -0.94515,13.067771 -2.67822,19.203285 h 1.65413 c 8.42806,0 15.35932,7.011996 15.35932,15.537896 v 0 c 0,8.52599 -6.93126,15.45831 -15.35932,15.45831 H 199.6526 l -0.31484,0.31903 h -12.68119 v 19.76105 c 0,5.49801 -4.41083,9.96021 -9.84574,9.96021 v 0 c -5.43492,0 -9.84565,-4.4622 -9.84565,-9.96021 V 126.3534 h -62.93352 l -0.23627,-0.31903 H 83.631563 c -8.427876,0 -15.280471,-6.93232 -15.280471,-15.45831 v 0 c 0,-8.5259 6.852595,-15.537896 15.280471,-15.537896 z"/><path fill="none" stroke="#1a1a1a" stroke-linecap="round" stroke-linejoin="round" stroke-width="9" d="M 83.788802,93.769391 H 110.88398"/><path fill="#ff80b2" fill-rule="evenodd" d="M 91.428947,42.448313 C 103.08614,20.615504 125.92828,5.7150261 152.2359,5.7150261 c 38.12243,0 68.99848,31.2351859 68.99848,69.8011329 0,6.693287 -0.86649,13.147447 -2.59937,19.282969 h 1.65404 c 8.42796,0 15.35931,6.932322 15.35931,15.458212 v 0 c 0,8.52599 -6.93135,15.5379 -15.35931,15.5379 h -19.77006 c -2.36292,-1.59358 -5.27722,-2.54973 -8.34912,-2.54973 h -1.65412 c 1.65412,-6.13552 2.59927,-12.58976 2.59927,-19.28297 0,-38.565936 -30.87596,-69.801176 -68.99838,-69.801176 -11.81489,0 -22.99955,3.027883 -32.687693,8.286949 z M 182.63924,154.24163 c -1.49652,0.95623 -3.30807,1.59367 -5.27722,1.59367 v 0 c -1.96924,0 -3.78087,-0.63728 -5.27731,-1.59367 z"/><path fill="none" stroke="#1a1a1a" stroke-linecap="round" stroke-linejoin="round" stroke-width="9" d="M218.87128 93.849067H196.97456M89.93242 43.563813C101.2746 20.615504 124.66801 4.9182268 151.68453 4.9182268c38.12242 0 69.07723 31.3148792 69.07723 69.8808262 0 6.613521-.94515 13.067763-2.67822 19.203285h1.65413c8.42806 0 15.35932 6.932242 15.35932 15.458212v0c0 8.60559-6.93126 15.5379-15.35932 15.5379H199.6526l-.31484.23928h-12.68119v19.84073c0 5.49809-4.41083 9.9602-9.84574 9.9602v0c-5.43492 0-9.84565-4.46211-9.84565-9.9602v-19.84073h-62.93352l-.23627-.23928H83.631563c-8.427876 0-15.280471-6.93231-15.280471-15.5379v0c0-8.52597 6.852595-15.458212 15.280471-15.458212h1.732883C83.631563 87.866816 82.686412 81.412574 82.686412 74.799053"/></g></svg>